<?xml version="1.0" encoding="UTF-8"?>
<svg width="145px" height="39px" viewBox="0 0 145 39" version="1.1" xmlns="http://www.w3.org/2000/svg" xmlns:xlink="http://www.w3.org/1999/xlink">
    <!-- Generator: Sketch 51.2 (57519) - http://www.bohemiancoding.com/sketch -->
    <title>Group 4</title>
    <desc>Created with Sketch.</desc>
    <defs></defs>
    <g id="Page-1" stroke="none" stroke-width="1" fill="none" fill-rule="evenodd">
        <g id="Desktop-HD" transform="translate(-251.000000, -20.000000)">
            <g id="Group-4" transform="translate(251.000000, 20.000000)">
                <g id="Group-39-Copy">
                    <g id="Group-38">
                        <g id="Group-10" transform="translate(0.242962, 0.000000)">
                            <g id="Group-62-Copy" transform="translate(0.062424, 0.080694)">
                                <g id="Group-69">
                                    <g id="LogoYouse">
                                        <g id="logo_youse-positivo">
                                            <path d="M72.6516163,29.9012904 C64.7435803,29.9012904 60.0763773,24.685888 60.0763773,17.2761845 L60.0763773,0.976411519 L67.3367508,0.976411519 L67.3367508,17.4966645 C67.3367508,19.0872703 67.88613,22.8748021 72.6642168,22.8748021 C75.849608,22.8748021 78.1554885,20.625381 78.1554885,17.4966645 L78.1554885,0.976411519 L85.4032615,0.976411519 L85.4032615,17.2761845 C85.3906611,24.4680327 80.3378847,29.9012904 72.6516163,29.9012904 L72.6516163,29.9012904 Z" id="Shape" fill="#FCBD1B"></path>
                                            <path d="M101.10593,29.9012904 C93.9135986,29.9012904 88.5861326,26.1137586 87.7066219,20.0216857 L95.0577185,20.0216857 C96.045593,22.4364668 98.9562946,23.3157622 101.10593,23.3157622 C104.016631,23.3157622 106.214148,22.4390916 106.214148,20.790741 C106.214148,19.2001351 105.226274,18.5413198 100.284381,17.7722645 C95.2442051,17.0032092 88.4777688,15.6330834 88.4777688,9.31790562 C88.4777688,4.87155855 92.3763449,0.262476215 100.559071,0.262476215 C107.038217,0.262476215 111.871746,3.77440797 112.804178,9.10005037 L105.281715,9.10005037 C104.84322,7.78766929 103.250525,6.73776443 100.559071,6.73776443 C97.2098737,6.73776443 95.8364257,7.94515502 95.8364257,8.98718559 C95.8364257,10.4701762 97.9230586,10.9636315 101.436061,11.5122068 C108.464587,12.6644774 113.517363,14.202588 113.517363,20.3497809 C113.517363,25.9510234 108.356223,29.9012904 101.10593,29.9012904 L101.10593,29.9012904 Z" id="Shape" fill="#FCBD1B"></path>
                                            <path d="M135.827702,20.2421657 C134.62058,22.4915868 132.259257,23.5336174 129.842493,23.5336174 C126.437854,23.5336174 123.690958,21.3944363 122.758526,17.9349998 L144.118791,17.9349998 C145.162108,6.73776443 138.244466,0.262476215 129.895415,0.262476215 C121.934457,0.262476215 115.399869,6.95824445 115.399869,15.1370033 C115.399869,23.3157622 121.934457,29.9012904 129.895415,29.9012904 C135.643735,29.9012904 140.033729,27.2922768 142.342129,23.1897736 L135.827702,20.2421657 Z M129.834933,6.63014918 C133.295013,6.63014918 136.039389,8.71683509 136.9189,12.0082868 L122.866889,12.0082868 C123.910206,8.71683509 126.558818,6.63014918 129.834933,6.63014918 L129.834933,6.63014918 Z" id="Shape" fill="#FCBD1B"></path>
                                            <polygon id="Shape" fill="#FCBD1B" points="19.4550792 29.8435456 12.3988329 29.8435456 12.3988329 20.0085618 0 0.976411519 7.9231566 0.976411519 15.8992351 12.7537193 23.9307554 0.976411519 31.853912 0.976411519 19.4550792 20.0085618 19.4550792 29.8409209"></polygon>
                                            <path d="M57.6772536,15.1370033 C57.6772536,23.5887374 51.2535493,29.9012904 43.4009552,29.9012904 C35.548361,29.9012904 29.1775786,23.6018612 29.1775786,15.1370033 C29.1775786,6.67214538 35.548361,0.262476215 43.4009552,0.262476215 C47.198041,0.228521273 50.8490139,1.7849189 53.5335841,4.58198231 C56.2181542,7.37904572 57.7111947,11.1822142 57.6772536,15.1370033 L57.6772536,15.1370033 Z M50.3689984,15.1921233 C50.3689984,10.307441 47.2390492,6.90312445 43.395915,6.90312445 C39.5527808,6.90312445 36.4228316,10.3153152 36.4228316,15.1921233 C36.4228316,19.9691904 39.5527808,23.2606422 43.395915,23.2606422 C47.2390492,23.2606422 50.3740386,19.9665657 50.3740386,15.1921233 L50.3689984,15.1921233 Z" id="Shape" fill="#FFFFFF"></path>
                                            <path d="M57.662133,38.568255 C57.662133,34.9250851 54.8446747,32.7937783 51.3619131,32.7937783 L35.4853588,32.7937783 C32.0076374,32.7937783 29.1851389,34.9277099 29.1851389,38.568255 L57.662133,38.568255 L57.662133,38.568255 Z" id="Shape" fill="#FFFFFF"></path>
                                        </g>
                                    </g>
                                </g>
                            </g>
                        </g>
                    </g>
                </g>
            </g>
        </g>
    </g>
</svg>