<?xml version="1.0" encoding="UTF-8"?>
<svg width="31px" height="36px" viewBox="0 0 31 36" version="1.1" xmlns="http://www.w3.org/2000/svg" xmlns:xlink="http://www.w3.org/1999/xlink">
    <!-- Generator: Sketch 51.2 (57519) - http://www.bohemiancoding.com/sketch -->
    <title>auto</title>
    <desc>Created with Sketch.</desc>
    <defs></defs>
    <g id="Page-1" stroke="none" stroke-width="1" fill="none" fill-rule="evenodd">
        <g id="Desktop-HD" transform="translate(-272.000000, -607.000000)" fill="#7CD4DA">
            <g id="preço-copy" transform="translate(248.000000, 592.000000)">
                <g id="Group-4-Copy" transform="translate(24.000000, 15.000000)">
                    <g id="HEADLINE-5-COLOR-&amp;-STYLE">
                        <g id="auto">
                            <path d="M24.0638007,13 L22.0426559,5.1552984 C22.0071593,5.10157051 21.9110586,5.02764093 21.8491559,5.00700942 L9.76254537,5.00700942 C9.72878026,5.0233427 9.68289434,5.05987767 9.65995138,5.08910564 L7.98208518,12.9020003 L3,11.8678459 L4.68652393,4.01196892 C5.17828244,1.72488015 7.34098099,0 9.71795811,0 L21.8807566,0 C24.2105491,0 26.3987879,1.67502066 26.9710632,3.89548686 L29,11.7702761 L24.0638007,13 Z" id="Fill-1"></path>
                            <path d="M26.3769552,24 L4.62304479,24 C2.07380883,24 0,22.0210271 0,19.5884618 L0,14.4115382 C0,11.9789729 2.07380883,10 4.62304479,10 L26.3769552,10 C28.9261912,10 31,11.9789729 31,14.4115382 L31,19.5884618 C31,22.0210271 28.9261912,24 26.3769552,24 L26.3769552,24 Z M5.0610401,19.1701119 L25.9385297,19.1701119 L25.9385297,14.8298881 L5.0610401,14.8298881 L5.0610401,19.1701119 Z" id="Fill-3"></path>
                            <path d="M7.5,28 C6.11951717,28 5,26.7882449 5,25.2939947 L5,22.70647 C5,21.2117551 6.11951717,20 7.5,20 C8.88048283,20 10,21.2117551 10,22.70647 L10,25.2939947 C10,26.7882449 8.88048283,28 7.5,28" id="Fill-5"></path>
                            <path d="M24.5,28 C23.1195172,28 22,26.7882449 22,25.2939947 L22,22.70647 C22,21.2117551 23.1195172,20 24.5,20 C25.8804828,20 27,21.2117551 27,22.70647 L27,25.2939947 C27,26.7882449 25.8804828,28 24.5,28" id="Fill-7"></path>
                            <path d="M30,36 C30,32.215457 27.2283145,30 23.8093796,30 L8.19104423,30 C4.77126162,30 2,32.215457 2,36 L30,36 Z" id="Fill-9"></path>
                        </g>
                    </g>
                </g>
            </g>
        </g>
    </g>
</svg>